<svg width="1064" height="2147" viewBox="0 0 1064 2147" fill="none" xmlns="http://www.w3.org/2000/svg">
<g clip-path="url(#clip0_8_11)">
<path d="M1047.37 339.5H1045.37V127.36C1045.37 110.634 1042.08 94.0718 1035.67 78.6191C1029.27 63.1665 1019.89 49.1259 1008.06 37.2993C996.236 25.4727 982.195 16.0917 966.742 9.69183C951.288 3.29198 934.726 -0.00131289 918 3.92623e-07H146C112.224 0.00265242 79.8318 13.4221 55.9493 37.3064C32.0669 61.1908 18.65 93.5837 18.65 127.36V339.5H16.65C14.4641 339.496 12.2988 339.923 10.2783 340.757C8.25774 341.592 6.42156 342.816 4.87494 344.361C3.32832 345.906 2.10163 347.74 1.26511 349.76C0.428589 351.779 -0.00131578 353.944 3.02505e-06 356.13V502.87C-0.0013116 505.054 0.427947 507.217 1.26322 509.236C2.09849 511.254 3.32339 513.088 4.86789 514.632C6.41239 516.177 8.24617 517.402 10.2644 518.237C12.2826 519.072 14.4458 519.501 16.63 519.5H18.63V554.5H16.63C14.4458 554.499 12.2826 554.928 10.2644 555.763C8.24617 556.598 6.41239 557.823 4.86789 559.368C3.32339 560.912 2.09849 562.746 1.26322 564.764C0.427947 566.783 -0.0013116 568.946 3.02505e-06 571.13V717.87C-0.0013116 720.054 0.427947 722.217 1.26322 724.236C2.09849 726.254 3.32339 728.088 4.86789 729.632C6.41239 731.177 8.24617 732.402 10.2644 733.237C12.2826 734.072 14.4458 734.501 16.63 734.5H18.63V2019.64C18.63 2036.37 21.9246 2052.93 28.3257 2068.38C34.7267 2083.83 44.1089 2097.87 55.9364 2109.7C67.7639 2121.53 81.8052 2130.91 97.2584 2137.31C112.712 2143.71 129.274 2147 146 2147H918C951.778 2147 984.172 2133.58 1008.06 2109.7C1031.94 2085.81 1045.36 2053.42 1045.36 2019.64V609.5H1047.36C1049.55 609.503 1051.71 609.074 1053.73 608.24C1055.75 607.405 1057.58 606.18 1059.13 604.636C1060.67 603.091 1061.9 601.257 1062.74 599.238C1063.57 597.219 1064 595.055 1064 592.87V356.13C1064 353.946 1063.57 351.783 1062.74 349.764C1061.9 347.746 1060.68 345.912 1059.13 344.368C1057.59 342.823 1055.75 341.598 1053.74 340.763C1051.72 339.928 1049.55 339.499 1047.37 339.5Z" fill="#333343"/>
<path d="M65 173C65 115.562 111.562 69 169 69H892C949.438 69 996 115.562 996 173V1989C996 2046.44 949.438 2093 892 2093H169C111.562 2093 65 2046.44 65 1989V173Z" fill="white"/>
<path d="M328 69H736V73C736 106.137 709.137 133 676 133H388C354.863 133 328 106.137 328 73V69Z" fill="#333343"/>
<path d="M394.5 114C403.613 114 411 106.613 411 97.5C411 88.3873 403.613 81 394.5 81C385.387 81 378 88.3873 378 97.5C378 106.613 385.387 114 394.5 114Z" fill="#C4C4C4"/>
<path d="M619 90H444C441.791 90 440 91.7909 440 94V101C440 103.209 441.791 105 444 105H619C621.209 105 623 103.209 623 101V94C623 91.7909 621.209 90 619 90Z" fill="#C4C4C4"/>
<path fill-rule="evenodd" clip-rule="evenodd" d="M718.512 1149.23L793.583 1080.63L758.024 1009.67L718.512 1149.23Z" fill="#097939"/>
<path fill-rule="evenodd" clip-rule="evenodd" d="M693.227 1149.23L768.298 1080.63L732.738 1009.67L693.227 1149.23Z" fill="#ED752E"/>
<path fill-rule="evenodd" clip-rule="evenodd" d="M334.466 1010.47L302.858 1123.21L415.067 1124L445.888 1010.47H474.334L437.38 1142.45C435.965 1147.49 430.577 1151.59 425.351 1151.59H281.525C272.803 1151.59 267.634 1144.76 269.993 1136.36L305.238 1010.47H334.466ZM681.37 1009.68H709.816L670.304 1151.59H641.056L681.37 1009.68ZM477.5 1068.81L619.738 1068.02L629.225 1038.06H484.608L493.299 1010.46L647.404 1009.04C656.996 1008.96 662.709 1016.39 660.183 1025.67L645.663 1078.82C643.132 1088.09 633.293 1095.61 623.701 1095.61H496.465L481.463 1153.95H453.787L477.5 1068.81Z" fill="#333343"/>
</g>
<defs>
<clipPath id="clip0_8_11">
<rect width="1064" height="2147" fill="white"/>
</clipPath>
</defs>
</svg>
